# xmcd CD database file
# Copyright (C) 1997 Ti Kan
# 
# Track frame offsets:
#     150
#     17208
#     33180
#     58967
#     69332
#     88178
#     94139
#     116753
#     128052
#     150540
#     161118
#     172702
#     185380
#     202670
#     216625
# 
# Disc length: 3035 seconds
# 
# Revision: 1
# Processed by: cddbd v1.4b41PL1 Copyright (c) Steve Scherf et al.
# Submitted via: DiscPlay 4.0.3
# 
DISCID=ca0bd90f
DTITLE=Eric Clapton - Las Leyendas del Rock
DYEAR=1900
DGENRE=
TTITLE0=Big Boss Man
TTITLE1=Louise
TTITLE2=She's So Respectable
TTITLE3=A Certain Girl
TTITLE4=They Call Is Stormy Monday
TTITLE5=Chocker
TTITLE6=Five Long Year
TTITLE7=Snake Drive
TTITLE8=First Time I Meet The Blues
TTITLE9=Got Tu Hurry
TTITLE10=Pounds And Stomps
TTITLE11=Freight Loader
TTITLE12=Early In The Morning
TTITLE13=Draggin My Tail
TTITLE14=For Your Love
EXTD=Compilacion para la Revista Espa ola Las Leyendas del Rock
EXTT0=
EXTT1=
EXTT2=
EXTT3=
EXTT4=
EXTT5=
EXTT6=
EXTT7=
EXTT8=
EXTT9=
EXTT10=
EXTT11=
EXTT12=
EXTT13=
EXTT14=
PLAYORDER=
